<svg xmlns:dc="http://purl.org/dc/elements/1.1/" xmlns:cc="http://creativecommons.org/ns#" xmlns:rdf="http://www.w3.org/1999/02/22-rdf-syntax-ns#" xmlns:svg="http://www.w3.org/2000/svg" xmlns="http://www.w3.org/2000/svg" xmlns:xlink="http://www.w3.org/1999/xlink" id="svg64024" version="1.1" viewBox="175.82 326.76 672.35 114.49">
  <metadata id="metadata64030">
    <rdf:rdf>
      <cc:work rdf:about="">
        <dc:format>image/svg+xml</dc:format>
        <dc:type rdf:resource="http://purl.org/dc/dcmitype/StillImage"/>
      </cc:work>
    </rdf:rdf>
  </metadata>
  <defs id="defs64028"/>
  <linearGradient spreadMethod="pad" y2="30%" x2="-10%" y1="120%" x1="30%" id="3d_gradient2-logo-6d2787be-0412-4bd9-aa9d-63e3a1fd6408">
    <stop id="stop64005" stop-opacity="1" stop-color="#ffffff" offset="0%"/>
    <stop id="stop64007" stop-opacity="1" stop-color="#000000" offset="100%"/>
  </linearGradient>
  <linearGradient gradientTransform="rotate(-30)" spreadMethod="pad" y2="30%" x2="-10%" y1="120%" x1="30%" id="3d_gradient3-logo-6d2787be-0412-4bd9-aa9d-63e3a1fd6408">
    <stop id="stop64010" stop-opacity="1" stop-color="#ffffff" offset="0%"/>
    <stop id="stop64012" stop-opacity="1" stop-color="#cccccc" offset="50%"/>
    <stop id="stop64014" stop-opacity="1" stop-color="#000000" offset="100%"/>
  </linearGradient>
  <g id="logo-group">
    <image xlink:href="" id="container" x="272" y="144" width="480" height="480" style="display: none;" transform="translate(0 0)"/>
    <g id="logo-center" transform="translate(125.82075000000009 0)">
      <image xlink:href="" id="icon_container" style="display: none;" x="0" y="0"/>
      <g id="slogan" style="font-style:normal;font-weight:700;font-size:32px;line-height:1;font-family:'Brandmark1 Bold Color';font-variant-ligatures:none;text-align:center;text-anchor:middle" transform="translate(0 0)"/>
      <g id="title" style="font-style:normal;font-weight:700;font-size:72px;line-height:1;font-family:'Brandmark1 Bold Color';font-variant-ligatures:normal;text-align:center;text-anchor:middle" transform="translate(0 0)">
        <g id="path64033" aria-label="H" transform="translate(0 331.048) translate(50 -2.9920000000000044) scale(2) translate(-347.27694 53.64)"> <path class="c1" d="M110.83716,106.62451H89.16284v21.45801H77.85815V71.91748h11.30469v23.97803h21.67432V71.91748h11.30469 v56.16504h-11.30469V106.62451z" transform="translate(269.41879 -125.55748)" stroke-width="0" stroke-linejoin="miter" stroke-miterlimit="2" fill="#1e6eca" stroke="#1e6eca"/> </g>
        <g id="path64035" aria-label="A" transform="translate(0 331.048) translate(142.40523999999988 -2.9920000000000044) scale(2) translate(-393.47956 53.64)"> <polygon class="c1" points="104.82788,71.91748 95.08569,71.91748 73.80786,128.08252 85.77515,128.08252 99.93921,89.14844 114.22534,128.08252 126.19214,128.08252 " transform="translate(319.6717 -125.55748)" stroke-width="0" stroke-linejoin="miter" stroke-miterlimit="2" fill="#1e6eca" stroke="#1e6eca"/> <polygon class="c3" points="100.03819,128.08252 91.09854,114.24284 108.90146,114.24284 " transform="translate(319.6717 -125.55748)" stroke-width="0" stroke-linejoin="miter" stroke-miterlimit="2" fill="#fac649" stroke="#fac649"/> </g>
        <g id="path64037" aria-label="S" transform="translate(0 331.048) translate(242.74173999999988 -4) scale(2) translate(-443.64781 54.144)"> <path class="c1" d="M80.97266,119.83057l-1.51953-1.62793l7.43848-8.89941l1.92188,2.41211 c1.50488,1.88672,3.4707,3.43457,5.6748,4.47168c2.07324,0.979,4.3125,1.49023,6.47266,1.49023 c2.5498,0,4.72363-0.56152,6.12109-1.57666c1.25977-0.91455,1.87207-2.13867,1.87207-3.75146 c0-1.75732-0.54004-2.84424-1.91504-3.87402c-1.58496-1.18115-4.14844-2.146-7.12207-3.26904 c-0.25195-0.09375-0.51074-0.19434-0.77734-0.29541c-4.08301-1.51904-8.00684-3.08154-11.1543-5.5874 c-1.82861-1.45459-3.18213-3.06055-4.14014-4.90381c-1.06543-2.04492-1.60547-4.37061-1.60547-6.9126 c0-4.42822,1.91553-8.52539,5.38623-11.53564c3.37012-2.91602,7.89844-4.52148,12.75977-4.52148 c6.27832,0,12.40625,2.26074,17.71289,6.53076l1.91602,1.54834l-6.90625,8.98633l-2.01563-1.65625 c-3.5498-2.93066-7.45313-4.6084-10.70703-4.6084c-3.02441,0-6.56738,1.31055-6.625,5.00439 c-0.02148,1.64893,0.77051,2.54883,1.97266,3.3916c1.72168,1.20947,4.45703,2.25342,7.35254,3.3623l0.02832,0.00732 c0.4541,0.18018,0.90723,0.36035,1.36133,0.53271c4.09668,1.60596,7.9707,3.11816,10.9082,5.5376 c3.4707,2.86572,5.16309,6.63867,5.16309,11.54248c0,2.65723-0.56836,5.12695-1.69238,7.34424 c-1.05859,2.07422-2.57031,3.88184-4.51465,5.37207c-3.54199,2.70703-8.31641,4.20508-13.4502,4.20508 C93.2998,128.55029,86.229,125.45459,80.97266,119.83057z" transform="translate(364.19468 -125.59373)" stroke-width="0" stroke-linejoin="miter" stroke-miterlimit="2" fill="#1e6eca" stroke="#1e6eca"/> </g>
        <g id="path64039" aria-label="T" transform="translate(0 331.048) translate(324.3042399999998 -2.9920000000000044) scale(2) translate(-484.42906 53.64)"> <path class="c1" d="M94.23975,82.64648H78.97412v-10.729h42.05176v10.729h-15.48145v45.43604H94.23975V82.64648z" transform="translate(405.45494 -125.55748)" stroke-width="0" stroke-linejoin="miter" stroke-miterlimit="2" fill="#1e6eca" stroke="#1e6eca"/> </g>
        <g id="path64041" aria-label="O" transform="translate(0 331.048) translate(402.99123999999995 -3.7120000000000033) scale(2) translate(-523.77256 54)"> <path class="c1" d="M88.93994,126.17456c-3.38477-1.43311-6.42285-3.47803-9.02979-6.08447 c-2.60645-2.60693-4.65137-5.64551-6.08447-9.02979c-1.4834-3.50684-2.23242-7.22949-2.23242-11.06006 s0.74902-7.55371,2.23242-11.06006c1.43311-3.38428,3.47803-6.42334,6.08447-9.02979 c2.60693-2.60645,5.64502-4.65137,9.02979-6.08447c3.50684-1.4834,7.22949-2.23242,11.05957-2.23242 c3.83105,0,7.55371,0.74902,11.06055,2.23242c3.38477,1.43311,6.42285,3.47803,9.0293,6.08447 c2.60742,2.60645,4.65234,5.64551,6.08496,9.02979c1.4834,3.50635,2.23242,7.22949,2.23242,11.06006 s-0.74902,7.55322-2.23242,11.06006c-1.43262,3.38428-3.47754,6.42285-6.08496,9.02979 c-2.60645,2.60645-5.64453,4.65137-9.0293,6.08447c-3.50684,1.4834-7.22949,2.23193-11.06055,2.23193 C96.16943,128.40649,92.44678,127.65796,88.93994,126.17456z M87.90283,87.9104c-3.2334,3.23291-5.01172,7.52441-5.01172,12.09717 c0,4.57227,1.77832,8.86377,5.01172,12.09668c3.2334,3.2334,7.52441,5.01172,12.09668,5.01172 c4.57324,0,8.86426-1.77832,12.09766-5.01172c3.23242-3.23291,5.01172-7.52441,5.01172-12.09668 c0-4.57275-1.7793-8.86426-5.01172-12.09717c-3.2334-3.23291-7.53223-5.01172-12.09766-5.01172 C95.43506,82.89868,91.13623,84.67749,87.90283,87.9104z" transform="translate(452.1793 -125.5935)" stroke-width="0" stroke-linejoin="miter" stroke-miterlimit="2" fill="#1e6eca" stroke="#1e6eca"/> </g>
        <g id="path64043" aria-label="C" transform="translate(0 331.048) translate(522.25474 -4.287999999999997) scale(2) translate(-583.40431 54.288)"> <path class="c1" d="M91.27637,126.36865c-3.40576-1.44043-6.46631-3.50684-9.09424-6.13477 c-2.62842-2.62793-4.6875-5.68848-6.13477-9.09473c-1.49072-3.52783-2.25391-7.27979-2.25391-11.13916 s0.75586-7.61084,2.25391-11.13916c1.43994-3.40625,3.50635-6.46631,6.13477-9.09473 c2.62793-2.62793,5.68848-4.6875,9.09424-6.13477c3.52881-1.49756,7.27979-2.25391,11.13916-2.25391 c9.5625,0,18.45508,4.74561,23.79102,12.70215l-9.38965,6.29346c-3.22559-4.81738-8.61133-7.69043-14.40137-7.69043 c-4.62207,0-8.97168,1.80029-12.24805,5.06934S85.09814,95.37744,85.09814,100c0,4.62305,1.80029,8.97217,5.06934,12.24854 c3.26855,3.26953,7.61816,5.06836,12.24805,5.06836c5.76074,0,11.13281-2.85742,14.36523-7.63867l9.36816,6.32813 c-5.33594,7.90039-14.20703,12.61621-23.7334,12.61621C98.55615,128.62256,94.80518,127.8667,91.27637,126.36865z" transform="translate(509.61086 -125.66542)" stroke-width="0" stroke-linejoin="miter" stroke-miterlimit="2" fill="#1e6eca" stroke="#1e6eca"/> </g>
        <g id="path64045" aria-label="K" transform="translate(0 331.048) translate(631.0624999999998 -2.9920000000000044) scale(2) translate(-637.80819 53.64)"> <polygon class="c1" points="108.10376,71.91748 88.48218,95.62207 88.48218,71.91748 77.17749,71.91748 77.17749,128.08252 88.48218,128.08252 88.48218,112.30518 122.80005,71.91748 " transform="translate(560.6307 -125.55748)" stroke-width="0" stroke-linejoin="miter" stroke-miterlimit="2" fill="#1e6eca" stroke="#1e6eca"/> <polygon class="c3" points="112.71143,114.24286 98.67279,114.24286 108.73071,128.08252 122.82251,128.08252 " transform="translate(560.6307 -125.55748)" stroke-width="0" stroke-linejoin="miter" stroke-miterlimit="2" fill="#fac649" stroke="#fac649"/> </g>
             </g>
      <image xlink:href="" id="icon" style="display: none;" x="0" y="0"/>
    </g>
  </g>
</svg>